<?xml version="1.0" encoding="UTF-8"?>
<svg version="1.1" xmlns="http://www.w3.org/2000/svg" width="512" height="512">
<path d="M0 0 C0.99370605 0.07839111 1.98741211 0.15678223 3.01123047 0.23754883 C9.67882463 0.81466922 16.18786742 1.81482409 22.75 3.125 C21.08310478 6.62339923 19.07379087 9.28486139 16.5625 12.25 C3.52020923 28.0588373 -7.8518971 46.15345651 -9.25 67.125 C-9.3015625 67.83140625 -9.353125 68.5378125 -9.40625 69.265625 C-9.96446319 83.31399022 -5.4899007 96.32446263 -0.25 109.125 C0.24886719 110.55779297 0.24886719 110.55779297 0.7578125 112.01953125 C1.08523438 112.71433594 1.41265625 113.40914063 1.75 114.125 C5.26694506 115.37546935 7.06784986 115.38270116 10.5625 114.0625 C12.96000693 112.28057197 12.96000693 112.28057197 13.5625 109.43359375 C13.79746871 105.28737508 12.71338574 102.98476672 10.9375 99.25 C4.17488038 84.34092662 2.62853857 67.88042249 7.75 52.125 C13.03103854 38.60277014 21.23990512 27.30408091 31.171875 16.84765625 C32.67395021 15.26137379 34.15489742 13.65348484 35.578125 11.99609375 C37.0625 10.3125 37.0625 10.3125 39.75 8.125 C61.2032028 8.90450026 87.13644292 27.35834799 103.75 40.125 C104.74257813 40.88296875 105.73515625 41.6409375 106.7578125 42.421875 C113.40965347 47.6144802 113.40965347 47.6144802 115.75 51.125 C113.61877727 64.64194416 105.41624809 76.79844504 94.75 85.125 C89.6297788 88.22073885 84.19815257 90.67152732 78.75 93.125 C75.56733985 94.4193259 75.56733985 94.4193259 73.75 97.125 C73.29680849 101.24342711 73.29680849 101.24342711 75.03515625 104.8046875 C76.87735713 106.48209953 76.87735713 106.48209953 80.4375 106.3125 C92.483586 104.48196732 103.54427791 96.71202888 111.75 88.125 C112.38164062 87.51269531 113.01328125 86.90039062 113.6640625 86.26953125 C120.3921407 79.31915972 124.30323479 70.05296258 127.75 61.125 C132.45267221 64.0492135 136.25039247 67.33127248 140.14453125 71.25390625 C140.73618576 71.84364731 141.32784027 72.43338837 141.93742371 73.04100037 C143.18445547 74.28667707 144.42898895 75.53485929 145.67114258 76.78540039 C147.5396998 78.6645703 149.41855931 80.53294799 151.29882812 82.40039062 C158.23975921 89.33326891 164.71067121 96.38216678 170.75 104.125 C171.66547921 105.2561704 172.58194745 106.38654211 173.5 107.515625 C188.99823808 127.21130256 201.2041668 149.66331645 199.53125 175.50390625 C197.78102886 189.4888463 191.98064923 200.03221931 183.75 211.125 C181.36812575 214.69781138 181.13704672 217.00215947 181.75 221.125 C182.65741213 224.12545238 183.69254266 227.06828697 184.7265625 230.02734375 C189.80323423 245.39299521 189.37859359 262.64164277 182.5 277.375 C179.7761016 282.39998272 176.48413649 286.80912435 172.75 291.125 C171.90888672 292.10919922 171.90888672 292.10919922 171.05078125 293.11328125 C152.0842655 313.64319743 121.83542856 322.23462948 95.75 329.125 C95.73541748 330.09324707 95.72083496 331.06149414 95.70581055 332.05908203 C95.64758433 335.67126324 95.57035464 339.28283683 95.48754883 342.89453125 C95.45441333 344.45400081 95.4263463 346.01358702 95.40356445 347.57324219 C95.36980719 349.82276852 95.31748496 352.07123687 95.26171875 354.3203125 C95.25532883 355.0111795 95.2489389 355.70204651 95.24235535 356.41384888 C95.10476971 361.00300009 94.16513258 364.22155354 91.75 368.125 C86.97595456 370.51202272 79.90299807 369.56327164 74.6027832 369.63989258 C72.91782927 369.67147028 71.2330955 369.71916158 69.54907227 369.78344727 C55.65671857 370.30627044 55.65671857 370.30627044 51.22241211 367.55908203 C49.39545197 365.51338212 48.08043652 363.51841006 46.75 361.125 C45.89308556 359.92583014 45.02752393 358.73277987 44.15234375 357.546875 C43.32585772 356.32620086 42.50440037 355.10210974 41.6875 353.875 C40.74433051 352.48250296 39.80027491 351.09060582 38.85546875 349.69921875 C38.35837402 348.96493652 37.8612793 348.2306543 37.34912109 347.47412109 C34.43217634 343.18910699 31.46719874 338.93780098 28.5 334.6875 C27.934021 333.8718457 27.36804199 333.05619141 26.78491211 332.21582031 C17.19417151 317.68784758 17.19417151 317.68784758 2.3125 309.8125 C-9.24171322 306.44014141 -19.29088459 301.41156384 -28.65234375 293.7265625 C-34.47414214 290.13718304 -40.12904865 291.23698582 -46.5 292.5625 C-69.22938358 296.78468383 -94.58788608 294.54634445 -114.5 282.07421875 C-125.96408337 273.94839829 -135.93757449 263.14151839 -139.25 249.125 C-138.64115967 248.80861572 -138.03231934 248.49223145 -137.4050293 248.16625977 C-109.2316987 233.46041285 -109.2316987 233.46041285 -92.671875 207.3203125 C-91.07880917 199.03046995 -91.27338421 189.63638539 -95.25 182.125 C-98.71923881 179.81217413 -100.17205575 179.70021414 -104.25 180.125 C-106.03242474 181.32928798 -106.03242474 181.32928798 -107.25 183.125 C-107.08201413 185.24162191 -106.89498524 187.35913711 -106.59375 189.4609375 C-105.51164804 197.84722769 -105.32510797 205.00954085 -110.25 212.125 C-110.62769531 212.69476563 -111.00539063 213.26453125 -111.39453125 213.8515625 C-125.1958744 232.11436703 -155.69792464 242.16767921 -177.25 246.125 C-187.08808462 247.07306187 -196.40675557 245.13755302 -204.5625 239.375 C-208.61320826 236.02441415 -211.97772798 232.22569531 -215.25 228.125 C-215.98476562 227.21492187 -216.71953125 226.30484375 -217.4765625 225.3671875 C-222.70792945 218.66613887 -226.89574947 211.94083377 -230.25 204.125 C-230.5903125 203.36316406 -230.930625 202.60132813 -231.28125 201.81640625 C-236.46566351 187.96730164 -233.57647863 172.23765066 -227.96484375 159.12109375 C-225.28003153 153.38501861 -222.05753686 148.09948474 -218.5 142.875 C-218.11110596 142.30136719 -217.72221191 141.72773438 -217.3215332 141.13671875 C-216.35251274 139.75923321 -215.30724902 138.43598878 -214.25 137.125 C-213.59 137.125 -212.93 137.125 -212.25 137.125 C-211.59644531 138.51912109 -211.59644531 138.51912109 -210.9296875 139.94140625 C-202.88261095 156.7940299 -191.46610017 166.04454224 -173.62109375 172.421875 C-167.41658891 174.34310025 -162.71084086 175.70676494 -156.25 174.125 C-153.9371024 171.24038937 -153.9371024 171.24038937 -154.1875 167.625 C-154.538125 166.47 -154.88875 165.315 -155.25 164.125 C-159.84339101 161.79660606 -164.57060569 160.36430637 -169.5 158.875 C-181.16719683 155.1293301 -190.60781249 149.15768184 -196.5 138.1875 C-202.5287552 125.04983763 -200.94522019 111.47639249 -196.25 98.125 C-187.66603226 76.3653301 -174.23417712 57.37065269 -152.15625 47.78125 C-137.8315489 42.39023346 -121.40573043 41.89181829 -107.25 48.125 C-100.26805014 51.53816717 -94.62778805 56.16251563 -88.890625 61.3671875 C-85.72245174 63.47617858 -83.98474826 63.56438215 -80.25 63.125 C-78.25 62.125 -78.25 62.125 -77.25 60.125 C-76.49755499 57.2974011 -76.49755499 57.2974011 -77.25 54.125 C-84.59324404 43.00523046 -99.70054554 34.49263973 -112.50830078 31.61816406 C-115.60664371 31.02466068 -118.7041207 30.49390088 -121.82910156 30.06103516 C-123.64487358 29.80520328 -125.44942478 29.47199687 -127.25 29.125 C-127.745 28.135 -127.745 28.135 -128.25 27.125 C-87.40178139 6.8414046 -45.86340128 -3.68048336 0 0 Z M-62.25 88.125 C-63.52651439 90.67524163 -64.7151337 93.21193541 -65.875 95.8125 C-70.42250355 105.39462364 -76.78528782 112.54025043 -86.9140625 116.4140625 C-97.66178402 119.68510818 -107.43640668 119.70856048 -118.1875 116.375 C-122.22187167 115.17499254 -122.22187167 115.17499254 -126.3125 116.0625 C-128.79832499 118.70870079 -129.67525101 120.53281883 -130.25 124.125 C-128.97635221 127.54792843 -127.69108839 128.84144318 -124.625 130.8125 C-111.87638674 135.77029405 -96.54269009 136.99237172 -83.609375 132.1328125 C-82.08923966 131.46101075 -80.58021601 130.76281609 -79.08984375 130.02734375 C-77.25 129.125 -77.25 129.125 -74.25 128.125 C-73.87488281 128.84945312 -73.49976563 129.57390625 -73.11328125 130.3203125 C-66.15702718 143.46185042 -58.21068922 150.6837997 -44.25 156.125 C-40.12585073 157.3086714 -36.07609319 157.34587212 -31.8125 157.375 C-31.06162109 157.395625 -30.31074219 157.41625 -29.53710938 157.4375 C-24.94070092 157.4698406 -21.97626546 157.10601237 -18.25 154.125 C-15.93462405 151.30791805 -15.93462405 151.30791805 -16.4375 148.125 C-17.26826554 145.05755801 -17.69266349 143.92460718 -20.25 142.125 C-23.97173982 140.80834676 -27.53470621 141.16529983 -31.4375 141.3125 C-37.90247177 141.42093865 -42.75363294 140.61530904 -48.25 137.125 C-49.8278125 136.135 -49.8278125 136.135 -51.4375 135.125 C-56.14782416 130.9028607 -59.80791948 123.70374709 -60.578125 117.46875 C-60.19048235 114.69987395 -59.46398371 113.69975085 -57.625 111.625 C-52.85029306 105.61958101 -48.001785 98.1974088 -48.48046875 90.34375 C-48.98146586 87.11111602 -48.98146586 87.11111602 -51 85.1875 C-56.19637542 82.73365605 -58.68453487 83.90026018 -62.25 88.125 Z M29.75 130.125 C29.42091833 133.23427047 29.42091833 133.23427047 30.75 136.125 C32.91867199 138.36059978 32.91867199 138.36059978 35.75 140.125 C36.801875 140.8675 37.85375 141.61 38.9375 142.375 C41.48093553 144.30110063 41.48093553 144.30110063 43.75 144.125 C50.45954067 157.33346796 52.04711816 168.50299772 48.75 183.125 C47.06904998 188.25973479 45.16818043 193.28863915 42.75 198.125 C42.04359375 197.980625 41.3371875 197.83625 40.609375 197.6875 C16.63901024 193.35115261 -8.00206454 196.74329209 -29.25 209.125 C-32.27650112 211.27520289 -34.82587195 213.12705165 -36.3125 216.625 C-36.23087758 219.8898969 -35.19045782 221.53772291 -33.25 224.125 C-30.37329087 225.56335457 -28.46133003 225.41011809 -25.25 225.125 C-22.6435414 223.95775985 -20.23460115 222.75543539 -17.75 221.375 C-1.26270041 212.65962705 18.69333258 208.679088 36.92578125 214.1015625 C56.29758356 221.12149639 66.51449679 234.04536314 75.40625 252.18359375 C77.05018606 255.78209332 78.47180197 259.43583843 79.79296875 263.1640625 C80.7109749 265.46331366 80.7109749 265.46331366 83.75 267.125 C87.3272533 267.58167063 89.08458305 267.56277431 92.125 265.5625 C94.34353669 262.23469496 94.50503689 259.93359314 93.75 256.125 C87.6367255 235.55960652 74.79794578 218.81028249 57.75 206.125 C58.41838796 202.12209877 59.65968053 198.59124808 61.125 194.8125 C66.82699028 179.07831233 69.72623863 162.17591365 62.49609375 146.38671875 C57.64747015 137.89171882 51.01501502 129.0133296 41.75 125.125 C35.90894032 124.13498988 33.15790025 125.22614339 29.75 130.125 Z M127.64453125 151.5859375 C126.99804123 151.73656647 126.35155121 151.88719543 125.68547058 152.04238892 C124.3308593 152.35982652 122.97712564 152.68103109 121.62426758 153.00585938 C119.55963362 153.50068698 117.49212089 153.98166009 115.42382812 154.4609375 C106.48962236 155.93872242 106.48962236 155.93872242 99.4375 160.875 C98.4809995 164.00536529 98.82032433 166.00394596 99.75 169.125 C101.87556927 171.18316159 103.09855593 172.07653475 106.07666016 172.2980957 C113.5354446 171.40498403 120.80655911 170.0016934 128.125 168.3125 C129.27355469 168.06435547 130.42210937 167.81621094 131.60546875 167.56054688 C132.71277344 167.30724609 133.82007813 167.05394531 134.9609375 166.79296875 C135.95399902 166.56891357 136.94706055 166.3448584 137.97021484 166.11401367 C141.23000392 164.95422046 143.27457987 163.53340415 145.75 161.125 C146.38734462 157.15930012 146.36999672 155.09219488 144.1875 151.6875 C139.17292734 148.47303035 133.1377721 150.29606869 127.64453125 151.5859375 Z " fill="#ff69b4ee" transform="translate(281.25,71.875)"/>
</svg>
