<?xml version="1.0" encoding="UTF-8"?>
<svg xmlns="http://www.w3.org/2000/svg" width="72" height="72" viewBox="0 0 72 72">
  <path fill="#ffffff" fill-rule="evenodd" d="
    M8,0 h56 a8,8 0 0 1 8,8 v56 a8,8 0 0 1-8,8 H8 a8,8 0 0 1-8-8 V8 a8,8 0 0 1 8-8 Z
    M16.349,22.794 C12.842,22.794 10,19.930 10,16.397 C10,12.864 12.842,10 16.349,10 C19.857,10 22.697,12.864 22.697,16.397 C22.697,19.930 19.857,22.794 16.349,22.794 Z
    M11.033,62 h10.736 V27.333 H11.033 V62 Z
    M62,62 H51.316 V43.802 C51.316,38.813 49.420,36.025 45.471,36.025 C41.175,36.025 38.930,38.926 38.930,43.802 V62 H28.633 V27.333 H38.930 V32.003 C38.930,32.003 42.026,26.274 49.383,26.274 C56.736,26.274 62,30.764 62,40.051 V62 Z
  "/>
</svg>
